<svg width="87" height="16" viewBox="0 0 87 16" fill="none" xmlns="http://www.w3.org/2000/svg">
<path d="M30.45 5C30.45 2.23858 32.6885 0 35.45 0H50.1C52.8614 0 55.1 2.23858 55.1 5V11C55.1 13.7614 52.8614 16 50.1 16H35.4499C32.6885 16 30.45 13.7614 30.45 11V5Z" fill="#7A56E8"/>
<path d="M62.35 5C62.35 2.23858 64.5886 0 67.35 0H82C84.7614 0 87 2.23858 87 5V11C87 13.7614 84.7614 16 82 16H67.35C64.5885 16 62.35 13.7614 62.35 11V5Z" fill="#7A56E8"/>
<path d="M0 5C0 2.23858 2.23858 0 5 0H19.65C22.4114 0 24.65 2.23858 24.65 5V11C24.65 13.7614 22.4114 16 19.65 16H4.99999C2.23857 16 0 13.7614 0 11V5Z" fill="#7A56E8"/>
<path d="M32.625 4.18183C32.625 3.07726 33.5204 2.18182 34.625 2.18182H50.925C52.0296 2.18182 52.925 3.07725 52.925 4.18182V11.8182C52.925 12.9228 52.0296 13.8182 50.925 13.8182H34.625C33.5204 13.8182 32.625 12.9228 32.625 11.8182V4.18183Z" fill="#F1F1F1"/>
<path d="M64.525 4.18183C64.525 3.07726 65.4205 2.18182 66.525 2.18182H82.825C83.9296 2.18182 84.825 3.07725 84.825 4.18182V11.8182C84.825 12.9228 83.9296 13.8182 82.825 13.8182H66.525C65.4205 13.8182 64.525 12.9228 64.525 11.8182V4.18183Z" fill="#F1F1F1"/>
<path d="M2.17505 4.18183C2.17505 3.07726 3.07048 2.18182 4.17505 2.18182H20.475C21.5796 2.18182 22.475 3.07725 22.475 4.18182V11.8182C22.475 12.9228 21.5796 13.8182 20.475 13.8182H4.17505C3.07048 13.8182 2.17505 12.9228 2.17505 11.8182V4.18183Z" fill="#F1F1F1"/>
<rect x="12.325" y="2.90912" width="24.65" height="9.45455" rx="4.72727" fill="#F1F1F1"/>
<rect x="45.675" y="2.90912" width="24.65" height="9.45455" rx="4.72727" fill="#F1F1F1"/>
<rect x="12.325" y="3.63635" width="24.65" height="8" rx="4" fill="#7A56E8"/>
<rect x="45.675" y="3.63635" width="24.65" height="8" rx="4" fill="#7A56E8"/>
</svg>
