<svg width="50" height="58" viewBox="0 0 50 58" fill="none" xmlns="http://www.w3.org/2000/svg">
<path fill-rule="evenodd" clip-rule="evenodd" d="M5 0H32.5336L50 15.3523V53C50 55.7615 47.7614 58 45 58H5C2.23858 58 0 55.7615 0 53V5C0 2.23859 2.23858 0 5 0ZM9 3C7.89543 3 7 3.89545 7 5V16C7 17.1046 7.89543 18 9 18H33C34.1046 18 35 17.1046 35 16V5C35 3.89545 34.1046 3 33 3H9ZM6 29C4.89543 29 4 29.8954 4 31V52C4 53.1046 4.89543 54 6 54H43C44.1046 54 45 53.1046 45 52V31C45 29.8954 44.1046 29 43 29H6Z" fill="#7A56E8"/>
</svg>
