<svg width="65" height="67" viewBox="0 0 65 67" fill="none" xmlns="http://www.w3.org/2000/svg">
<path fill-rule="evenodd" clip-rule="evenodd" d="M58 16H8V57C8 62.5228 12.4772 67 18 67H48C53.5229 67 58 62.5228 58 57V16ZM19.5 25C18.1193 25 17 26.1193 17 27.5V51.5C17 52.8807 18.1193 54 19.5 54C20.8807 54 22 52.8807 22 51.5V27.5C22 26.1193 20.8807 25 19.5 25ZM30 22.5C30 21.1193 31.1193 20 32.5 20C33.8807 20 35 21.1193 35 22.5V58.5C35 59.8807 33.8807 61 32.5 61C31.1193 61 30 59.8807 30 58.5V22.5ZM45.5 25C44.1193 25 43 26.1193 43 27.5V51.5C43 52.8807 44.1193 54 45.5 54C46.8807 54 48 52.8807 48 51.5V27.5C48 26.1193 46.8807 25 45.5 25Z" fill="#7A56E8"/>
<path d="M0 14C0 10.134 3.13401 7 7 7H58C61.866 7 65 10.134 65 14V14H0V14Z" fill="#7A56E8"/>
<path d="M28 5C28 2.23858 30.2386 0 33 0V0C35.7614 0 38 2.23858 38 5V7H28V5Z" fill="#7A56E8"/>
</svg>
