<svg width="352" height="228" viewBox="0 0 352 228" fill="none" xmlns="http://www.w3.org/2000/svg">
<path d="M129 60C129.333 55 132 42.2 140 31C141.667 30 145.9 28.6 149.5 31M149.5 31C146 34.5 138.9 44.5 138.5 56.5M149.5 31C153.167 31.8333 161.3 34.2 164.5 37C168.5 40.5 180 46.5 181 67.5C181.8 84.3 168.667 95.5 162 99L139 93.5C136.167 94.1667 132.2 98.3 139 109.5M148.5 45.87C154.536 47.4928 164.245 50.9979 169.5 53L163.5 54C163.167 52.58 159.7 48.9659 148.5 45.87ZM148.5 45.87C146.496 45.3313 144.897 45 144 45M49 134C74.6 129.2 97.6667 115 106 108.5C129.5 83 101 77.8333 93 76.5C87 75.5 80.1667 73.3333 76 71C82.6667 67.6667 94.9 60.7 90.5 59.5C86.1 58.3 79 48 76 43C84.3333 44.5 100 46.6 96 43C92 39.4 90.6667 20.5 90.5 11.5C95.6667 19 106.1 32.6 106.5 27C106.9 21.4 120 8 126.5 2C125.167 10.1667 123.7 25.6 128.5 22C134.5 17.5 171 22 163.5 22C157.5 22 145 28 139.5 31M49.5 134C58.5 144.667 79.1 174.1 89.5 206.5M138.5 109C142.333 111.667 153.2 117.2 166 118C163.333 128.167 157.7 150.4 156.5 158L154.5 170.5M180.75 193.25L183.5 196.5H204L212 184L232 186.5V179C232 176.2 213.333 172.833 204 171.5C174.57 182.496 146.644 193.361 67 212.445M180.75 193.25L178 190M180.75 193.25L67 212.445M1 227.5C26.3725 221.947 48.1368 216.966 67 212.445M204.939 158.205L206.606 160.179H219.03L223.879 152.589L236 154.107V149.554C236 147.854 224.687 145.81 219.03 145C201.194 151.676 184.269 158.273 136 169.86M204.939 158.205L203.273 156.232M204.939 158.205L136 169.86M96 179C111.377 175.628 124.568 172.604 136 169.86M232 184C237.167 186.167 247.8 191.5 249 195.5C250.2 199.5 211.833 197.833 192.5 196.5M205 171.5L212.5 160.5M232 180.5C233.2 180.9 237.5 180 239.5 179.5C242.333 171.333 247.8 149.3 247 148.5C246.2 147.7 239.333 146.167 236 145.5C232.833 145.167 225.7 144.7 222.5 145.5M350.5 143.5C346.5 151.1 288.167 165.667 259.5 172L287 79.5C296.647 82.3006 303.126 78.8373 307.374 72.5M350.5 143.5C354.5 135.9 328.167 67.6667 314.5 34.5M350.5 143.5C350.1 144.7 343 167.667 339.5 179C325.5 182.833 298.6 189.8 303 187C307.4 184.2 321.833 163.833 328.5 154M314.5 34.5L312 34L307.374 72.5M314.5 34.5C315.213 45.4984 314.047 62.5451 307.374 72.5M303.5 187.5C296.5 187.833 275.8 190 249 196M156.5 157.5C169.333 144.833 210 122.8 270 136M129 57C126.5 57.5 121.3 59 120.5 61C119.7 63 120.167 71.1667 120.5 75C121.5 76 124.6 78 129 78C133.4 78 139.833 76 142.5 75C143.333 74.6667 144.9 73 144.5 69C144.1 65 144.333 60.3333 144.5 58.5C144.833 57.5 144.9 55.4 142.5 55C140.1 54.6 138.833 54.5 138.5 54.5M125.5 62C129 60 136.7 56.1 139.5 56.5C142.3 56.9 142.667 58 142.5 58.5C142.333 62.3333 142.1 70.3 142.5 71.5C142.9 72.7 135.333 74.6667 131.5 75.5C129.5 75.5 125.5 75.2 125.5 74C125.5 72.5 124.5 62.5595 125.5 62Z" stroke="url(#paint0_linear)"/>
<defs>
<linearGradient id="paint0_linear" x1="333.5" y1="48" x2="-108.5" y2="48" gradientUnits="userSpaceOnUse">
<stop stop-color="#7A56E8"/>
<stop offset="0.720743" stop-color="#FF0000" stop-opacity="0"/>
</linearGradient>
</defs>
</svg>
