<svg width="29" height="29" viewBox="0 0 29 29" fill="none" xmlns="http://www.w3.org/2000/svg">
<path d="M19.5417 14.17L27.5985 6.11323C28.5872 5.12455 28.5872 3.52157 27.5985 2.53208L25.8079 0.74151C24.8192 -0.24717 23.2163 -0.24717 22.2268 0.74151L14.17 8.79828L6.11323 0.74151C5.12455 -0.24717 3.52157 -0.24717 2.53208 0.74151L0.74151 2.53208C-0.24717 3.52076 -0.24717 5.12374 0.74151 6.11323L8.79828 14.17L0.74151 22.2268C-0.24717 23.2155 -0.24717 24.8184 0.74151 25.8079L2.53208 27.5985C3.52076 28.5872 5.12455 28.5872 6.11323 27.5985L14.17 19.5417L22.2268 27.5985C23.2155 28.5872 24.8192 28.5872 25.8079 27.5985L27.5985 25.8079C28.5872 24.8192 28.5872 23.2163 27.5985 22.2268L19.5417 14.17Z" fill="#4c4c4c"/>
</svg>
