<svg width="64" height="63" viewBox="0 0 64 63" fill="none" xmlns="http://www.w3.org/2000/svg">
<path fill-rule="evenodd" clip-rule="evenodd" d="M17.137 22.641L14.6065 20.5241C12.4781 24.0051 11.4084 28.1798 11.8032 32.5586C12.7757 43.3425 22.2632 51.2797 32.9941 50.2868C43.725 49.2939 51.6357 39.7469 50.6633 28.9629C50.5004 27.1577 50.099 25.4321 49.4931 23.815L54.0202 21.9782C54.7987 24.0286 55.3139 26.2196 55.5207 28.5135C56.7364 41.9935 46.8479 53.9272 33.4343 55.1683C20.0207 56.4095 8.16139 46.488 6.94571 33.0081C6.4292 27.2803 7.91752 21.8317 10.8292 17.364L8.51819 15.4306L19.0512 11.5249L17.137 22.641Z" fill="#7A56E8"/>
</svg>
